<svg width="1166" height="1040" viewBox="0 0 1166 1040" fill="none" xmlns="http://www.w3.org/2000/svg">
<path fill-rule="evenodd" clip-rule="evenodd" d="M1105.99 636.356C1116.23 631.009 1126.24 625.2 1136.08 619.154C1143.01 615.007 1136.87 604.561 1129.76 608.335C1126.13 610.266 1122.51 612.216 1118.87 614.134C1121.73 611.671 1124.39 608.989 1126.76 606.066L1126.6 605.903C1135.76 597.692 1123.99 582.2 1113.57 588.945C1104.38 595.607 1095.1 602.405 1084.55 606.792C1062.7 616.058 1038.6 617.591 1015.14 617.859C1006.56 617.214 998.364 618.701 990.036 620.358C993.301 607.26 1001.47 597.369 1005.81 584.683C1009 571.875 990.516 563.15 983.964 575.462C982.356 578.485 980.823 581.543 979.324 584.617C965.162 597.498 941.514 596.363 927.231 610.194C919.095 617.415 915.114 627.212 913.541 637.046C912.473 643.723 914.133 650.417 910.096 656.331C890.577 683.939 859.735 727.577 844.072 757.96C832.982 685.762 803.371 596.462 772.78 530.445C762.664 509.332 751.091 488.702 735.899 470.806C737.621 464.838 731.543 454.244 727.678 457.505C715.781 442.972 694.751 439.209 677.841 431.984C655.014 422.223 636.075 401.935 626.765 378.875C614.803 334.963 585.356 329.385 544.517 331.326C505.433 331.277 476.516 347.994 467.988 387.78C450.663 417.977 409.757 412.983 380.328 420.978C358.76 425.905 337.829 433.522 317.937 443.193C295.808 422.202 216.553 510.297 209.349 532.969C213.59 533.791 217.805 534.78 221.982 535.986C225.702 537.062 224.14 542.681 220.388 541.781C215.719 540.66 211.02 539.888 206.299 539.352C206.155 539.804 206.029 540.252 205.935 540.696C205.405 540.66 204.876 540.615 204.346 540.579C205.521 541.19 206.652 541.9 207.754 542.816C210.418 545.028 206.95 549.297 204.119 547.534C201.452 545.539 197.959 545.854 194.76 545.184C194.57 551.762 171.097 544.403 167.451 542.223C151.246 540.196 134.575 542.371 119.447 534.556C99.3179 530.317 79.0379 525.629 59.1349 520.231C53.8659 522.285 48.9139 529.635 53.0989 535.029C55.4529 537.483 52.4269 541.491 49.4629 539.746C39.5219 533.895 31.8339 524.761 25.3159 514.921C22.2479 511.826 16.8019 512.492 12.6799 511.207C12.1289 512.198 11.8039 513.301 11.8089 514.433C-5.67612 517.311 6.79688 536.408 15.5869 542.358C10.9239 545.394 10.7469 551.34 11.1549 556.305C10.1669 558.073 9.83688 560.265 10.6969 562.247C13.9849 569.824 21.0959 576.205 26.5029 582.344C32.4729 589.123 37.7959 595.94 45.0599 601.436C72.7479 622.541 106.161 634.341 140.439 638.956C152.61 640.825 170.117 643.686 177.653 653.978C175.804 666.192 172.409 677.906 169.329 689.816C165.022 705.626 165.315 722.177 165.258 738.295C164.656 737.811 163.5 737.911 163.328 738.833C162.326 745.514 161.581 752.346 157.52 757.96C153.96 768.399 151.591 779.534 150.26 790.502C144.928 842.497 143.655 896.026 155.677 947.211C160.316 966.2 167.861 984.246 178.141 1000.86C181.206 1005.82 186.134 1007.27 190.559 1006.3C205.369 1013.99 224.026 1016.46 239.989 1014.5C294.41 999.098 275.448 1036.2 351.751 1024.84C483.458 1008.06 616.562 1041.03 747.989 1021.67C751.226 1046.67 793.6 1039.5 808.319 1028.93C852.453 996.122 874.367 892.246 896.516 839.551C911.741 798.017 937.235 724.453 970.622 696.583C980.633 688.753 992.734 684.631 1004.84 681.303C1050.03 669.659 1095.39 658.647 1140.67 647.326C1148.34 645.436 1146.96 632.341 1138.75 633.181C1127.86 634.296 1116.92 635.305 1105.99 636.356Z" fill="white"/>
<path fill-rule="evenodd" clip-rule="evenodd" d="M100.045 628.568C96.9848 628.188 93.9848 627.098 91.0048 626.238C86.4548 624.908 81.9948 623.358 77.6048 621.588C68.5448 617.959 59.7548 613.668 51.5148 608.418C38.2048 599.928 26.4448 589.048 17.5748 575.948L16.9659 575.035C11.902 567.321 2.56124 550.194 13.0348 544.338C6.28455 538.698 -0.095455 528.568 0.264545 520.748C0.774545 509.688 14.3345 509.839 21.3445 514.528C25.9345 517.598 29.3745 521.898 32.8245 526.129C36.6445 530.828 40.7245 535.308 44.9645 539.618C46.0895 540.758 47.2258 541.875 48.3817 542.975L49.5444 544.068C49.3645 543.638 49.2045 543.198 49.0645 542.747C46.7245 535.458 49.5145 525.968 56.8045 522.628C61.2658 520.583 65.8989 521.832 70.222 523.568L70.8845 523.838C76.7045 526.247 82.5945 528.378 88.6545 530.088C113.355 537.058 139.135 538.218 164.445 541.698C174.195 543.048 184.125 544.747 193.825 547.247C197.524 531.538 206.594 516.479 216.434 504.089C263.554 444.818 341.264 425.229 412.354 412.549C418.834 411.399 424.205 419.978 427.975 417.948C435.125 414.108 441.415 408.668 446.935 402.758C458.705 390.148 467.055 375.318 476.865 361.268C481.715 354.328 492.875 360.538 488.375 367.988L486.17 371.629C477.093 386.543 467.042 401.912 454.025 413.478C447.105 419.618 439.425 424.468 430.645 427.497C423.995 429.788 414.665 431.718 407.385 429.497L406.511 428.225C406.8 428.65 407.091 429.074 407.385 429.497C426.385 457.027 450.224 480.328 475.344 502.318C500.7 524.502 528.053 544.367 555.571 563.79L557.864 565.408C602.694 532.709 640.564 490.058 667.134 441.329C661.565 440.658 656.055 437.089 651.295 434.428C645.565 431.209 640.175 427.368 635.975 422.248C626.825 411.098 628.015 396.728 626.365 383.198C626.265 382.358 627.375 382.148 627.885 382.568C632.845 386.688 634.585 393.438 636.655 399.268C638.935 405.678 641.515 410.959 646.745 415.468C651.615 419.669 657.555 422.758 663.325 425.508C666.3 426.919 681.072 430.545 682.754 433.549C708.275 427.558 733.135 437.908 752.045 455.368C770.315 472.238 783.725 494.168 795.565 515.818C808.195 538.918 818.545 562.997 827.465 587.747C836.505 612.868 843.435 638.538 847.245 664.978C850.461 687.27 852.433 709.911 853.709 732.451L853.865 735.268C872.744 705.638 892.094 676.318 911.844 647.258C907.354 635.268 912.324 623.028 920.734 613.768C930.054 603.518 942.944 598.758 955.274 593.218L956.895 592.485C962.838 589.774 968.761 586.789 973.894 582.728C978.834 578.808 982.464 573.408 987.664 569.798C995.224 564.538 1008.94 565.658 1009.29 577.148C1009.47 583.459 1006.76 590.378 1004.28 596.048C1001.47 602.459 997.684 608.268 993.184 613.608C992.976 613.857 992.749 614.053 992.518 614.209L992.345 614.318C998.565 615.348 1004.83 616.178 1011.22 616.468C1024.11 617.058 1037.14 616.108 1049.76 613.388C1062.68 610.608 1075.2 606.089 1086.82 599.788C1096.75 594.408 1105.95 587.448 1117.23 585.808C1118.27 585.648 1119.32 585.548 1120.4 585.488C1122.2 585.388 1124 587.508 1123.29 589.287C1122.9 590.268 1122.49 591.238 1122.04 592.218C1118.14 600.808 1112.16 609.141 1104.7 615.466L1104.12 615.948C1106.75 615.038 1109.34 614.018 1111.89 612.868C1126.88 606.118 1140.48 595.918 1156.55 591.818C1157.31 591.618 1158.08 591.438 1158.85 591.268C1163.82 590.198 1166.44 595.598 1163.52 599.298C1163.05 599.898 1162.58 600.488 1162.09 601.078C1154.92 609.978 1147.01 618.238 1138.29 625.658C1135.3 628.198 1132.22 630.658 1129.08 633.009C1127.76 634.005 1126.43 634.98 1125.09 635.938L1124.42 636.408C1125.99 635.299 1127.54 634.169 1129.08 633.009C1138.92 630.028 1148.62 626.498 1158.11 622.589C1161.88 621.038 1164.81 624.858 1165.21 627.998C1166.55 638.519 1154.87 646.129 1147.27 651.188C1139.65 656.269 1131.26 660.129 1122.67 663.228C1106.16 669.197 1088.81 671.907 1071.49 674.336L1063.08 675.508C1029.78 680.164 995.006 685.73 971.114 711.639C957.724 726.158 948.664 744.198 940.374 761.948C932.094 779.679 924.824 797.879 917.924 816.179C910.774 835.118 904.544 854.408 897.924 873.538C891.844 891.103 884.582 908.444 877.389 925.609L876.254 928.318C860.984 964.799 842.744 999.158 817.324 1029.62C813.134 1034.65 806.364 1027.51 810.234 1022.53C836.824 988.248 855.324 947.799 870.594 907.448C877.544 889.089 883.364 870.288 890.044 851.828L894.019 840.862C899.327 826.243 904.68 811.643 910.264 797.139C917.334 778.788 925.104 760.658 933.994 743.118L934.938 741.271C943.641 724.35 953.982 707.673 968.214 694.868C993.832 671.809 1027.92 666.277 1060.88 661.896L1071.25 660.529C1085.18 658.678 1099.15 656.634 1112.7 652.908C1120.52 650.769 1128.16 648.028 1135.34 644.248C1138.2 642.748 1140.99 641.099 1143.69 639.299C1135.99 641.559 1128.18 643.408 1120.23 644.858C1116.34 645.568 1112.49 646.099 1108.65 646.469C1098.76 647.448 1088.95 647.408 1078.82 646.879C1077.96 646.828 1077.68 645.479 1078.6 645.309C1085.66 644.054 1092.72 642.485 1099.76 640.783L1101.86 640.268C1101.9 639.099 1102.36 637.858 1103.32 636.679C1106.82 632.419 1113.47 630.238 1118.08 627.228C1122.91 624.078 1127.59 620.679 1132.05 617.038C1136.13 613.709 1140.05 610.188 1143.82 606.509L1144.95 605.398C1144.58 605.77 1144.2 606.141 1143.82 606.509C1133.64 611.21 1123.99 617.238 1113.36 620.959C1104.91 623.928 1096.05 625.928 1087.11 626.638L1086.56 626.682L1086 626.718C1076.67 627.388 1067.28 627.118 1058.09 629.138C1057.06 629.368 1056.74 627.988 1057.66 627.598C1065.69 624.258 1074.04 622.968 1082.48 621.408C1082.66 620.748 1083.12 620.158 1083.92 619.778L1086.08 618.747C1092.51 615.659 1098.51 612.541 1103.85 607.528C1108.57 603.098 1112.5 597.919 1115.45 592.178C1103.64 594.768 1093.27 603.718 1082.53 608.748C1070.83 614.238 1058.45 618.178 1045.73 620.419L1044.29 620.667C1020.51 624.632 991.93 624.127 970.635 611.768C969.955 611.368 970.445 610.459 971.145 610.568C977.185 611.558 983.165 612.728 989.145 613.768C987.974 612.698 987.454 610.778 988.804 609.238C994.175 603.083 998.423 596.048 1001.14 588.35L1001.66 586.845C1002.91 583.274 1005.02 577.729 1002.86 574.508C1000.8 571.438 995.954 571.858 993.054 573.158C987.024 575.878 983.014 582.669 977.934 586.768C972.394 591.248 966.094 594.568 959.644 597.538L958.282 598.157C947.126 603.175 935.206 607.4 926.434 616.258C921.714 621.018 917.654 626.968 916.294 633.638C915.674 636.698 915.674 639.848 916.494 642.878C917.144 645.248 918.504 646.709 917.724 649.118C916.704 652.228 913.094 655.948 911.234 658.718C909.074 661.919 906.924 665.128 904.774 668.338C900.484 674.758 896.214 681.198 891.944 687.628C883.404 700.508 874.954 713.448 866.574 726.428C863.848 730.655 861.13 734.886 858.421 739.121L854.365 745.478L852.221 748.83L848.565 754.577C848.695 755.108 848.685 755.668 848.515 756.157C847.891 757.933 846.724 759.147 845.273 760.027L845.014 760.178C823.674 793.908 802.674 827.858 781.464 861.669C780.334 871.988 779.274 882.318 778.354 892.648C776.264 916.028 774.834 939.469 774.374 962.938C774.154 974.299 775.064 985.728 775.554 997.078C775.794 1002.49 776.123 1007.91 776.552 1013.31L776.867 1017.15C777.29 1022.42 783 1029 781.5 1033C786.5 1038 780.5 1039 775.5 1039C735.97 1037.41 686.715 1031.91 647.155 1031.16C576.345 1029.8 505.505 1030.01 434.685 1031.38C399.115 1032.07 363.535 1033.04 327.975 1034.24C310.455 1034.82 294.53 1038.76 277 1039C267.555 1039.13 251.085 1032.57 250.323 1021.94L250.305 1021.62C249.125 1021.94 247.905 1022.2 246.655 1022.39C246.098 1022.47 245.564 1022.45 245.07 1022.33L244.825 1022.27C230.746 1026.56 212.937 1020.44 199.559 1016.87L198.455 1016.58C185.685 1013.25 175.425 1008.49 167.055 997.908C152.405 979.379 147.405 954.498 144.805 931.568C142.365 909.988 142.225 888.009 145.195 866.469C143.445 848.919 145.155 830.809 147.145 813.358C148.125 804.728 149.275 796.108 150.655 787.528C151.425 782.738 152.435 777.998 153.465 773.268C153.876 771.378 154.218 769.343 154.74 767.376L154.975 766.538C153.375 766.748 151.625 766.398 149.935 765.469C145.915 763.259 144.745 758.788 144.675 754.509C144.455 741.608 145.995 728.339 147.355 715.519C148.725 702.719 150.605 689.868 153.065 677.228L153.701 673.969C155.565 664.514 157.698 654.753 161.455 645.868C147.345 643.469 133.275 640.919 119.585 636.578C112.905 634.448 106.325 631.799 100.045 628.568ZM836.504 762.818C836.285 762.868 836.075 762.928 835.865 762.988C830.225 764.568 824.525 765.908 818.845 767.348C809.025 769.818 799.425 772.578 790.295 776.868C788.382 801.009 785.547 825.07 782.851 849.144L782.314 853.959C786.454 846.278 790.694 838.658 795.124 831.129C808.614 808.178 822.414 785.408 836.504 762.818ZM158.415 765.209C158.445 768.078 157.845 771.059 157.525 773.818C157.005 778.299 156.585 782.799 156.055 787.278C154.975 796.278 154.055 805.288 153.385 814.328C152.955 820.099 152.675 825.889 152.425 831.679C158.095 810.488 165.605 789.759 172.745 768.998C171.551 768.872 170.331 768.58 169.073 768.246L166.954 767.676C165.705 767.354 161.652 766.357 158.415 765.209ZM854.365 745.478L854.405 746.428C854.555 749.798 852.535 751.698 850.085 752.188C851.505 749.948 852.935 747.708 854.365 745.478ZM205.565 585.759C211.535 586.288 217.385 587.559 222.965 589.759L223.503 589.969C227.63 591.562 233.665 593.564 235.015 597.969C235.395 599.219 234.375 600.248 233.205 600.349C228.725 600.709 223.445 595.908 219.295 594.288C214.675 592.488 209.835 591.148 204.935 590.438C193.925 588.828 182.445 590.049 172.085 594.059C171.475 594.299 171.095 593.328 171.645 593.038C182.085 587.358 193.695 584.709 205.565 585.759ZM79.0548 614.358C78.3644 613.748 77.6744 613.108 76.9944 612.469C71.633 607.397 66.8853 601.478 63.3699 594.973L62.4448 593.213C59.5816 587.669 56.0658 579.772 62.7944 575.778C66.8144 573.389 71.6544 573.988 76.1344 575.438C76.4244 575.528 76.7144 575.629 77.0044 575.728C79.0044 576.429 80.9344 577.268 82.6544 578.068C90.1244 581.498 96.7144 586.488 103.614 590.889C111.091 595.659 118.473 598.709 127.102 600.494L127.914 600.658C136.014 602.259 144.794 603.288 150.444 609.948C151.864 611.629 150.564 614.778 148.114 613.948C132.494 608.679 115.964 607.518 101.624 598.868C95.6844 595.288 90.0644 591.179 83.9944 587.788C80.7744 585.987 77.4499 584.412 73.907 583.332L71.9715 582.761C70.8378 582.43 69.4844 582.103 68.5744 582.429C66.8422 583.029 67.395 583.956 67.931 585.574L67.9844 585.738C72.1944 598.759 84.1944 609.658 95.3144 616.868C97.8644 618.528 100.474 620.049 103.134 621.459C121.14 631.056 141.287 635.523 161.074 640.825C161.074 640.825 172.515 644.019 176.305 645.219C180.525 644.868 185.335 646.359 188.515 648.139C191.605 649.868 194.095 652.189 195.975 654.919C195.975 654.919 197.785 656.429 198.115 658.769C199.065 660.939 199.705 663.278 200.025 665.719C200.205 667.149 199.845 668.248 199.165 669.028C201.21 700.42 192.731 731.636 183.171 761.471L182.224 764.413L181.615 766.278C171.305 797.908 159.475 829.309 154.195 862.288C150.665 884.318 150.775 907.118 153.365 929.248L153.547 930.774C156.099 951.698 161.009 975.169 174.315 992.009C181.101 1000.6 189.142 1004.42 199.422 1007.19L199.985 1007.34C209.285 1009.79 218.885 1013.26 228.475 1014.31C237.375 1015.28 244.835 1011.97 252.845 1008.87L252.855 1008.86C269.725 993.928 277.385 972.188 283.045 950.247C297.715 893.468 295.895 834.528 287.575 776.918C283.235 746.818 277.335 716.978 271.455 687.148C268.515 672.238 265.345 657.358 262.715 642.398L261.153 633.594C260.291 628.702 259.457 623.807 258.745 618.888C257.785 612.278 257.495 605.778 257.165 599.128C249.085 585.738 237.355 574.708 223.765 566.798C214.035 561.128 203.735 557.198 193.105 554.348C162.715 546.158 129.585 546.738 99.0045 540.438C88.7315 538.324 78.98 535.186 69.2336 531.425L67.9045 530.908C63.4345 529.168 58.8745 528.198 56.6545 533.468C55.0745 537.218 56.0145 541.118 58.3845 544.268C64.1945 551.988 75.8745 555.568 84.6645 558.348C89.9545 560.028 95.3545 561.358 100.815 562.348C106.275 563.338 111.755 563.588 116.995 565.518C119.015 566.258 119.415 569.468 116.995 570.037C110.355 571.588 103.675 570.258 97.0745 568.968C89.8245 567.537 82.6845 565.508 75.7445 562.938C74.4645 562.466 73.1397 561.969 71.7906 561.44L70.7745 561.038C71.8245 561.799 72.8745 562.549 73.9345 563.299C74.2145 563.498 74.0445 564.028 73.6745 563.898C57.3565 557.81 42.5091 546.826 31.0069 533.83L30.4345 533.179C26.3845 528.538 17.1545 514.498 9.37455 518.408C2.06894 522.075 14.5224 536.212 19.2552 541.991L19.8047 542.669C25.1847 542.809 30.3947 546.158 34.7547 548.858C42.3247 553.549 50.2347 557.589 58.2947 561.368C74.3147 568.898 91.3247 574.209 107.175 582.118C107.385 582.229 107.225 582.498 107.025 582.469C96.9347 580.858 86.9547 578.288 77.2047 575.099L76.7697 574.962L76.3347 574.818C70.2447 572.818 64.2347 570.559 58.3247 568.148C51.7547 565.469 45.3347 562.459 39.1047 559.049C33.4647 555.969 27.2047 550.419 20.6647 549.599C19.9647 549.509 19.3447 549.498 18.8047 549.549C11.2948 550.178 17.5048 562.618 19.6048 566.338C23.0348 572.448 27.1748 578.088 31.9248 583.238C41.5548 593.698 53.2248 601.988 65.8548 608.438C70.1648 610.638 74.5748 612.578 79.0548 614.358Z" fill="black"/>
<path fill-rule="evenodd" clip-rule="evenodd" d="M559.107 28.4199C611.446 28.4199 679.007 61.2738 684.768 94.9223C691.557 134.576 727.913 286.733 719.703 335.527C711.494 384.321 667.254 419.447 596.463 419.447C525.672 419.447 472.834 380.816 460.702 367.552C448.57 354.287 426.087 306.93 426.087 306.93C426.087 306.93 388.184 301.886 388.005 270.969C387.825 240.051 412.648 228.802 412.648 228.802C412.648 228.802 403.797 106.788 426.087 75.0213C448.377 43.2547 506.768 28.4199 559.107 28.4199Z" fill="white"/>
<path fill-rule="evenodd" clip-rule="evenodd" d="M681.564 89.4924C681.527 88.7831 682.559 88.7001 682.752 89.3273C694.044 126.657 701.005 155.748 708.332 194.02L710.496 205.278C716.278 235.305 722.121 265.375 727.054 295.548L727.344 297.349C729.815 312.968 731.239 328.738 728.142 344.389C725.247 359.018 717.338 372.43 707.07 383.111C687.224 403.755 659.644 416.65 631.899 422.415C617.87 425.329 603.398 426.455 589.101 425.44C581.975 424.941 574.86 423.936 567.882 422.452L567.111 422.287C560.078 420.767 553.835 418.955 550.1 412.332C549.16 410.663 549.538 407.804 551.511 406.946C555.235 405.34 557.973 404.668 562.037 405.129C565.917 405.571 569.707 406.743 573.541 407.472C580.87 408.865 588.317 409.565 595.775 409.732C610.422 410.055 625.106 408.219 639.107 403.847C663.165 396.329 687.611 381.949 701.668 360.439C718.204 335.135 711.62 304.424 707.238 276.479L707.106 275.633C702.67 247.07 698.284 218.507 694.026 189.925L692.21 177.675C687.436 145.308 682.929 122.202 681.564 89.4924ZM437.303 10.2685C449.31 2.34889 464.231 0.402814 478.334 0.5121L480.1 0.534381C498.159 0.809818 589.062 2.97452 619.497 3.64063L626.737 3.79323C636.32 3.97416 655.647 4.16308 665.605 4.34519L666.18 4.35589C671.065 4.44813 675.95 4.48503 680.836 4.64183L681.552 4.66765C685.212 4.82399 688.257 5.37196 691.123 7.95325C692.58 9.26151 693.149 11.2568 693.016 13.1573L692.994 13.4046L700.248 14.0411C705.174 14.4768 707.779 18.8978 705.822 23.3714L705.724 23.5879C702.249 31.004 699.594 52.5881 697.732 60.5669C696.755 64.7638 695.971 69.0253 695.51 73.3144C695.142 76.6913 695.105 80.0756 693.225 83.0457C689.214 89.3826 677.932 89.3273 677.73 80.3523C677.72 80.0664 677.73 79.7897 677.757 79.5222C649.366 78.2769 610.606 78.3968 582.252 80.094C555.769 81.6806 529.407 85.2779 503.459 90.7846C496.886 92.1775 490.332 93.6994 483.825 95.3505C478.488 96.6972 471.934 97.4997 467.159 100.387C461.813 103.634 461.914 109.454 462.495 114.998C463.118 120.873 464.158 117.846 465.63 123.201L465.721 123.539C467.242 129.35 469.122 135.097 471.611 140.557C473.031 143.675 475.318 146.673 474.45 150.261C473.962 152.281 472.366 154.439 470.901 155.851C464.227 162.261 452.945 158.175 448.41 166.956C443.664 176.139 443.546 188.577 443.143 198.738L443.119 199.333C442.825 206.334 442.907 213.353 443.368 220.336C443.783 226.699 445.478 233 443.303 239.116C441.717 243.562 436.538 243.977 433.828 240.361C433.517 239.946 433.231 239.52 432.964 239.092L432.703 238.664L432.686 238.673C432.943 239.079 433.182 239.495 433.413 239.918C433.662 240.388 433.044 240.905 432.666 240.499C426.287 233.554 416.968 234.937 409.751 239.798C402.441 244.742 399.556 254.132 399.178 262.555C398.754 271.897 399.584 282.847 403.474 291.48C405.114 295.133 407.455 298.49 411.336 299.883C413.098 300.51 414.775 300.427 416.609 300.575C418.516 300.722 420.812 301.682 422.664 301.553C425.072 301.381 427.233 304.132 426.549 306.436L426.5 306.589C426.464 306.7 426.426 306.81 426.39 306.912C426.481 306.995 426.573 307.096 426.638 307.244C433.643 321.569 443.248 334.316 453.867 346.141C459.187 352.054 465.085 357.487 471.252 362.514C474.294 364.995 477.501 367.477 480.884 369.478C482.009 370.132 483.04 370.576 484.305 370.936C484.894 371.102 485.567 371.185 486.138 371.378L486.732 371.582C486.773 371.595 486.811 371.607 486.848 371.618C488.544 371.812 489.973 372.937 490.535 374.699C492.001 379.292 489.337 383.351 484.783 384.615C479.85 385.995 475.201 383.571 471.29 380.788L471.03 380.602C463.057 374.857 455.711 368.408 449.35 360.881C436.768 346.022 428.886 328.819 425.238 309.79C424.333 311.736 423.117 313.433 421.006 314.614C417.724 316.459 413.807 316.459 410.212 315.841C402.976 314.614 396.809 310.196 392.689 304.218C388.411 298.02 386.817 290.493 385.849 283.16C384.891 275.817 384.42 268.448 385.379 261.087C386.753 250.516 391.186 240.066 399.805 234.273C393.352 220.206 392.219 204.433 392.68 189.029C393.242 170.065 396.514 150.888 399.031 132.099L406.184 78.6828V78.6828L406.477 76.5294C408.204 63.9631 410.305 51.3304 415.005 39.4901C419.641 27.8217 426.684 17.2695 437.303 10.2685ZM407.198 262.969C419.015 257.231 431.781 262.517 438.142 273.65C443.672 283.33 427.23 289.728 424.486 279.75L424.407 279.443C422.601 271.888 415.244 265.358 407.566 264.343C406.93 264.252 406.459 263.329 407.198 262.969Z" fill="black"/>
<path fill-rule="evenodd" clip-rule="evenodd" d="M601.69 281.933C613.561 281.933 618.588 283.863 626.311 288.401C634.034 292.939 642.29 298.788 644.243 307.55C646.065 315.714 642.48 323.669 634.545 326.783C630.107 328.526 578.968 332.606 570.945 333.139C562.923 333.672 555.267 333.014 550.115 327.671C536.804 313.866 555.289 295.968 567.101 289.359C577.648 283.455 589.819 281.933 601.69 281.933ZM598.945 291.243C590.016 291.243 575.387 297.774 575.387 300.954C575.387 304.134 618.022 300.977 618.936 298.257C619.85 295.537 607.874 291.243 598.945 291.243ZM605.814 218.367C613.365 222.957 624.871 233.66 616.748 245.04C607.186 255.073 593.418 243.569 586.634 238.366C580.343 234.334 573.275 244.704 579.112 249.413C628.136 285.708 648.03 219.567 609.633 212.97C605.406 212.243 603.836 216.947 605.814 218.367ZM520.541 176.766C533.403 167.27 552.643 174.579 555.813 189.436C558.016 190.595 559.215 192.438 559.476 195.136L559.541 195.811V195.811C559.852 199.016 557 202.05 554.149 202.895C550.94 203.845 548.4 203.354 545.421 201.991C542.566 200.684 541.572 196.976 542.091 194.155L542.137 193.922C542.9 190.421 539.898 187.029 536.877 185.642C533.468 184.077 529.643 185.057 526.679 187.131C523.388 189.432 520.651 193.368 519.725 197.29L519.633 197.698C518.903 201.083 518.354 207.436 521.639 209.38C522.221 209.723 521.806 210.511 521.205 210.407C514.067 209.186 509.816 204.892 509.773 197.211C509.727 189.077 514.096 181.524 520.541 176.766ZM638.98 174.064C651.825 169.508 667.889 181.747 662.941 195.883C659.692 205.164 647.126 201.444 648.296 192.141L648.336 191.857C649.081 187.017 645.415 184.734 640.921 186.322C634.26 188.677 630.668 199.143 633.789 205.249C634.172 205.999 633.101 206.634 632.655 205.911L632.227 205.224C628.742 199.674 625.563 195.577 626.708 188.487C627.762 181.952 632.763 176.268 638.98 174.064ZM612.928 140.418C612.895 139.793 613.553 139.372 614.115 139.513C618.681 140.662 622.814 143.982 626.972 146.136C631.51 148.486 636.158 150.385 641.086 151.777C645.888 153.133 650.74 153.809 655.732 153.767C661.133 153.722 666.419 151.695 671.716 151.862C679.68 152.113 683.841 163.693 675.998 167.673C664.578 173.466 647.641 169.257 636.533 164.441C627.592 160.564 613.51 151.403 612.928 140.418ZM554.921 143.065C559.087 137.701 567.516 137.379 571.215 143.699C575.036 150.229 570.444 156.776 563.951 158.127C552.102 163.424 539.966 167.478 527.024 169.159L525.271 169.38C514.007 170.75 499.792 171.498 489.614 166.302C488.617 165.792 488.919 164.273 489.917 163.988C495.655 162.347 502.081 162.351 507.982 161.274C513.595 160.251 519.162 159.119 524.628 157.46C535.427 154.181 545.659 149.495 554.921 143.065Z" fill="black"/>
<rect x="276" y="1015" width="500" height="24" fill="black"/>
</svg>
