<svg width="1333" height="2088" viewBox="0 0 1333 2088" fill="none" xmlns="http://www.w3.org/2000/svg">
<path fill-rule="evenodd" clip-rule="evenodd" d="M595.687 1375.74C593.401 1399.59 598.075 1422.37 609.207 1441.63L612.829 1447.89L605.935 1450.3C593.389 1454.69 579.437 1456.82 563.281 1456.82C546.654 1456.82 529.364 1454.51 515.471 1452.65L506.576 1451.46L510.945 1443.73C514.459 1437.52 515.109 1429.99 515.799 1422.02C515.984 1419.88 516.175 1417.67 516.426 1415.48C529.59 1297.8 546.23 1178.58 562.322 1063.29C566.558 1032.95 570.936 1001.58 575.184 970.719L587.369 971.189C590.647 1028.31 593.828 1086.39 596.904 1142.57C598.256 1167.27 599.61 1191.97 600.974 1216.67C605.836 1279.11 604.157 1329.67 595.687 1375.74M590.714 2081.44C608.609 2081.44 626.538 2079.58 644.002 2075.9C698.652 2064.43 748.301 2037.36 790.549 2012.89C792.706 2011.66 794.895 2010.44 797.142 2009.18C813.681 1999.93 834.265 1988.41 847.165 1974.36C861.316 1958.95 863.752 1943.6 854.828 1926.04L853.416 1923.26L854.892 1920.51C864.131 1903.31 863.444 1882.03 853.221 1868.76L844.63 1857.61L858.756 1859.11C872.999 1860.62 887.354 1862.67 901.238 1864.65C916.641 1866.85 932.572 1869.12 948.261 1870.64L952.621 1871.07L953.623 1875.27C954.181 1877.61 954.871 1879.03 959.71 1879.03C963.907 1879.03 969.547 1877.8 975.516 1876.5C982.925 1874.88 991.322 1873.05 999.42 1873.05C1002.98 1873.05 1006.19 1873.39 1009.22 1874.09L1010.98 1874.5L1012.23 1875.78C1013.04 1876.61 1014.4 1877.12 1015.8 1877.12C1016.85 1877.12 1017.83 1876.82 1018.49 1876.31L1020.46 1874.76L1022.97 1875.04C1066.71 1879.84 1104.42 1888.27 1138.27 1900.8L1138.42 1900.86L1139.15 1901.18C1151.39 1906.46 1164.04 1911.92 1175.56 1911.92C1183.99 1911.92 1190.83 1909.06 1197.09 1902.9L1198.86 1901.17L1201.36 1901.14C1226.69 1900.91 1238.27 1871.36 1239.87 1851.56L1240.07 1849.06L1242 1847.44C1286.16 1810.38 1312.22 1759.48 1321.7 1691.84C1330.32 1630.22 1323.7 1565.26 1316.08 1509.83C1298.46 1366.2 1280.09 1237.44 1233.37 1115.32L1231.19 1109.61L1237.01 1107.52C1257.18 1100.27 1272.6 1091.62 1284.15 1081.07L1284.95 1080.34L1285.95 1079.93C1302.5 1073.13 1310.6 1048.03 1312.69 1040.5L1312.86 1039.9L1313.15 1039.34C1316.53 1032.86 1317.31 1023.85 1315.29 1014.62L1315.07 1013.62L1315.2 1012.61C1316.29 1003.84 1312.67 994.679 1308.84 984.975C1307.09 980.542 1305.28 975.96 1303.95 971.396C1299.41 958.354 1294.87 945.081 1290.48 932.243C1280.63 903.44 1270.44 873.656 1259.59 844.683L1258.1 840.721L1261.37 837.99C1266.95 833.326 1265.09 827.837 1257.04 814.712C1255.14 811.612 1253.34 808.679 1251.97 805.789C1241.65 787.957 1230.59 770.84 1219.1 754.906L1218.86 754.579L1218.67 754.225C1159.68 644.029 1055.03 583.342 924.014 583.342L921.343 583.347L919.867 582.459C895.312 567.69 877.782 542.349 866.278 504.99L865.911 503.799L866.053 502.562C866.447 499.119 866.879 494.604 866.731 490.224C866.356 479.13 862.008 469.229 854.803 463.061C841.132 451.359 820.379 450.379 800.294 450.379L797.41 450.384C771.73 450.457 753.601 454.917 740.354 464.419C724.964 475.46 716.458 493.283 714.35 518.905C713.72 526.572 713.741 534.514 713.761 542.196L713.766 544.339L713.508 545.19C711.662 551.28 709.5 557.131 707.082 562.583L704.595 568.192L698.94 565.663C695.282 564.029 690.645 563.188 684.761 563.093C683.064 563.054 681.41 563.036 679.741 563.036C666.078 563.036 651.464 564.283 637.329 565.489C626.679 566.398 615.666 567.339 605.006 567.756L604.86 567.762C604.86 567.762 603.388 567.753 602.728 567.753C576.819 567.753 558.038 571.828 543.622 580.579C528.1 589.999 516.939 605.119 508.499 628.161C463.232 760.239 444.622 902.504 428.207 1028.02C418.895 1093.65 416.063 1160.94 413.325 1226.02C410.432 1294.7 407.443 1365.72 396.858 1435.15L396.022 1440.64L390.401 1440.28C365.665 1438.68 338.933 1435.24 310.633 1431.6C267.634 1426.07 223.172 1420.35 180.19 1420.35C120.092 1420.35 74.5244 1432.18 40.9064 1456.5C17.4695 1478.59 5.34484 1508.49 5.84302 1543.01C6.54741 1591.78 32.3374 1645.69 71.5456 1680.36L71.6936 1680.5C121.253 1727.32 211.718 1767.94 340.574 1801.21C459.065 1831.81 581.63 1848.44 644.144 1855.63L659.616 1857.41L647.058 1866.49C641.975 1870.16 637.337 1873.4 632.879 1876.38L630.003 1878.3L626.853 1876.86C617.869 1872.74 612.164 1871.87 608.957 1871.87C606.112 1871.87 602.68 1872.49 602.491 1875.44C602.367 1877.37 603.74 1880.23 606.636 1880.59L622.014 1882.51L609.457 1891.47C601.07 1897.45 588.556 1904.66 574.065 1913.01C526.657 1940.33 455.013 1981.62 467.335 2017.87L468.144 2020.25L466.998 2022.5C463.688 2028.99 463.405 2035.02 466.137 2040.92C471.986 2053.57 490.285 2063.18 505.826 2067.08L506.092 2067.15L506.352 2067.24C533.393 2076.66 561.777 2081.44 590.714 2081.44" fill="white"/>
<path fill-rule="evenodd" clip-rule="evenodd" d="M642.736 1848.53C640.868 1846.63 640.082 1844.13 641.828 1841.21C648.576 1832.59 662.573 1838.48 671.28 1840.47C674.568 1837.74 677.833 1834.99 680.978 1832.09C679.885 1825.31 688.032 1820.81 691.38 1815.58C694.667 1811.73 697.761 1807.35 701.702 1804.12C711.307 1796.63 724.619 1801.7 735.767 1801.36C744.353 1790.43 753.193 1779.86 761.36 1768.57C751.948 1752.75 751.284 1734.22 754.408 1716.58C610.028 1661.79 485.054 1558.05 328.903 1534.07C323.534 1533.18 320.522 1526.65 321.86 1521.86C332.753 1495.87 489.282 1562.95 512.68 1575.1C581.689 1608.15 646.331 1649.34 713.4 1685.69C727.386 1693.12 742.77 1697.11 758.063 1700.98C781.563 1623.84 821.316 1553.12 851.798 1478.75C849.819 1475.32 848.133 1471.72 846.704 1468.02C847.715 1508.92 807.942 1508.35 802.45 1469.55C804.716 1489.77 789.424 1533.09 767.353 1504.67C762.177 1497.53 760.339 1488.38 759.462 1479.16C758.328 1485.54 757.042 1491.88 755.613 1498.21C749.948 1510.74 734.481 1495.5 730.889 1488.97C728.815 1488.59 726.876 1487.65 725.457 1486.49C686.429 1491.91 640.461 1491.6 611.825 1460.79C563.252 1479.42 509.494 1462.73 460.37 1455.28C360.407 1443.79 260.046 1426.27 159.185 1427.61C114.155 1430.22 61.0305 1437.49 32.5475 1475.92C-3.98913 1531.32 16.6629 1606.13 56.9664 1654.09C153.918 1776.86 486.708 1830.24 642.736 1848.53M640.011 1892.75C638.245 1892.28 636.468 1891.84 634.702 1891.43C606.404 1915 473.13 1976.18 483.268 2012.73C486.851 2017.28 495.426 2018.31 500.848 2019.78C510.291 2022.34 519.826 2024.55 529.451 2026.3C560.568 2031.96 592.796 2032.95 623.872 2026.49C635.304 2024.75 645.625 2019.87 656.038 2015.16C689.686 2000.35 726.743 1984 760.228 1969.32C802.767 1952.45 877.382 1919.21 846.694 1863.12C817.62 1895.83 780.716 1892.97 762.126 1852.32C755.715 1839.98 750.121 1823.34 735.063 1818.35C727.121 1812.98 716.963 1811.87 710.327 1817.85C709.848 1817.11 709.419 1816.06 709.185 1815.14C701.702 1825.79 695.249 1837 686.481 1846.74C689.492 1846.9 720.832 1870.1 711.583 1870.11C700.456 1864.38 689.4 1859.6 677.384 1856.51C668.676 1865.27 659.101 1873.42 649.178 1880.95C658.815 1887.32 667.472 1895.11 674.434 1903.57C675.036 1904.32 674.301 1905.28 673.403 1904.88C662.592 1900.06 651.475 1895.83 640.011 1892.75M496.559 2050.79C604.802 2099.42 719.394 2045.27 811.7 1987.54C833.004 1975.64 861.027 1958.78 856.719 1930.77C841.028 1953.73 815.16 1966.8 790.332 1978.14C748.62 1996.99 706.633 2015.25 664.817 2033.87C660.868 2046.98 641.982 2047.48 630.568 2050.39C579.759 2060.24 525.143 2055.35 477.326 2035.69C480.094 2043.89 489.148 2047.65 496.559 2050.79M928.425 1861.44C931.099 1861.78 933.774 1862.09 936.448 1862.4C936.172 1858.86 938.306 1855.32 941.736 1854.22C940.195 1846.72 939.623 1838.96 940.45 1831.35C935.978 1842.9 921.543 1839.39 912.376 1836.06C899.278 1832.5 886.263 1828.67 873.318 1824.59C868.214 1834.07 862.803 1843.42 856.157 1852.01C880.353 1854.16 904.322 1858.43 928.425 1861.44M939.072 1825.09C939.715 1826.45 940.634 1827.89 940.654 1829.52C941.307 1823.9 942.583 1818.34 944.523 1813.02C942.707 1817.05 940.889 1821.07 939.072 1825.09M954.344 1794.95C966.247 1779.43 988.246 1766.75 1008.58 1771.07C1009.89 1771.36 1009.92 1773.46 1008.58 1773.72C981.264 1777.43 957.274 1799.1 956.325 1827.12C954.17 1839.81 962.99 1852.26 960.02 1864.43C960.612 1864.47 961.204 1864.5 961.786 1864.54C962 1865.35 962.195 1866.08 962.45 1866.71C959.499 1867.2 958.631 1871.95 962.113 1872.8C964.175 1873.3 966.329 1873.56 968.523 1873.67C979.661 1870.66 991.411 1869.97 1002.06 1865.52C1012.59 1860.87 1009.96 1847.78 1013.68 1838.72C1016.4 1828.27 1019.54 1817.86 1023.49 1807.83C1023.77 1807.03 1024.86 1807.21 1024.96 1808.02C1027.74 1828.03 1027.65 1848.38 1026.98 1868.54C1030.63 1868.91 1034.27 1869.33 1037.91 1869.78C1037.68 1864.15 1054.57 1795.52 1063.47 1813.14C1058.99 1832.5 1058.45 1852.72 1057.97 1872.64C1084.4 1877 1110.44 1883.49 1135.78 1892.32C1153.64 1897.73 1174.87 1913.74 1192.2 1899.27C1205.63 1888.16 1210.15 1868.79 1208.89 1852.31C1191.43 1754.78 1053.55 1743.39 972.158 1750.6C964.471 1768.34 956.641 1786.02 948.709 1803.66C950.352 1800.62 952.23 1797.71 954.344 1794.95M1231.95 1850.41C1233.44 1828.26 1229.71 1800.69 1213.31 1784.19C1175.76 1752.44 1123.18 1742.45 1076.27 1730.96C1054.41 1726.64 1032.26 1723.78 1010.01 1722.35C1002.12 1721.72 992.095 1723.51 986.522 1717.06C983.653 1723.86 980.744 1730.64 977.834 1737.43C1071.24 1725.19 1266.12 1767.72 1211.55 1895.69C1223.11 1883.17 1230.76 1867.93 1231.95 1850.41M767.873 1777.2C763.576 1787.94 758.318 1798.17 751.448 1807.52C759.257 1812.63 765.627 1820.18 770.119 1828.3C798.907 1903.63 829.697 1863.28 867.948 1822.86C835.577 1810.64 792.701 1801.49 767.873 1777.2M1247.06 1835.08C1321.91 1761.12 1336.44 1637.91 1308.79 1541.05C1306.33 1505.14 1293.77 1470.91 1282.52 1436.91C1246.7 1333.76 1199.58 1234.53 1143.08 1140.83C1072.98 1160.09 1003 1179.86 932.732 1198.49C923.055 1200.59 913.367 1204.75 903.433 1205.35C899.881 1207.61 896.318 1210.11 892.622 1212.3C898.002 1238.66 893.041 1265.57 891.785 1292.09C890.643 1312.97 892.898 1333.42 895.666 1354.08C898.758 1384.13 911.489 1481.87 885.977 1499.77C877.33 1503.94 869.602 1491.58 865.876 1494.98C862.517 1492.64 859.383 1489.59 856.831 1486.23C846.98 1518.09 830.881 1547.65 820.938 1579.54C807.708 1626.41 764.259 1702.27 773.907 1746.98C781.369 1774.58 814.016 1780.54 837.578 1789.56C864.804 1799.03 892.337 1807.73 920.318 1814.79C933.978 1785.8 947.034 1756.53 959.846 1727.15C1018.4 1591.61 1070.26 1453.24 1116.61 1313.22C1117.48 1310.12 1128.13 1276.44 1130.08 1285.84C1130.25 1284.87 1131.46 1282.38 1131.92 1284.51C1124.06 1317.39 1116.09 1350.26 1107.46 1382.95C1128.66 1379.98 1151.44 1378.83 1170.84 1389.22C1171.84 1389.75 1171.1 1391.07 1170.11 1390.91C1147.14 1386.92 1124.99 1394.45 1102.93 1399.85C1071.95 1505.33 1031.97 1608.13 989.655 1709.65C1002.74 1705.48 1017.93 1710.1 1031.59 1710.43C1074.61 1714.87 1117.14 1724.29 1157.78 1738.93C1208.86 1755.5 1244.98 1777.1 1247.06 1835.08M1288.27 1065.34C1300.84 1051.79 1310.73 1034.49 1308.82 1016.14C1301.26 1006.06 1298.76 992.917 1294.36 981.27C1277.16 932.532 1261.19 883.422 1242.47 835.208C1202.65 847.458 1163.47 862.152 1126.51 881.451C1119.71 884.921 1112.99 888.522 1106.34 892.253C1099.38 896.156 1091.78 902.934 1083.43 900.993C1092.56 913.917 1111.35 927.364 1114.53 942.298C1115.21 947.026 1111.86 951.411 1106.72 950.355C1026.18 1007.57 943.012 1063.58 866.887 1127.31C809.882 1172.45 766.117 1209.06 746.568 1282.3C733.389 1329.74 733.349 1379.32 735.287 1428.1C735.665 1437.58 735.675 1447.29 736.441 1456.83C735.298 1463.97 737.472 1478.51 745.496 1478.77C745.312 1480.5 744.741 1482.1 743.832 1483.51C744.087 1483.85 744.353 1484.17 744.628 1484.5C745.026 1482.55 745.414 1480.61 745.782 1478.66C752.03 1450.98 752.867 1418.87 751.825 1389.4C751.387 1380.95 764.341 1381.15 765.066 1389.4C767.016 1411.68 768.966 1433.95 770.915 1456.22C773.254 1470.65 769.568 1489.53 781.104 1500.5C792.833 1489.66 788.954 1468.28 788.382 1454.29C787.465 1431.47 786.473 1408.66 785.626 1385.84C785.361 1378.61 797.335 1376.75 798.694 1384.1C802.542 1405.06 806.707 1425.96 811.189 1446.8C813.894 1454.85 815.752 1491 829.268 1484.72C837.322 1479.22 831.514 1446.97 832.575 1436.29C832.075 1415.15 831.78 1394.03 830.228 1372.94C829.595 1364.44 843.448 1362.63 845.346 1370.93C848.429 1384.38 851.38 1397.83 854.054 1411.36C859.924 1434.18 857.791 1465.12 878.984 1480.29C887.283 1421.01 875.34 1362.14 873.665 1303.08C874.666 1283.94 877.953 1264.99 880.852 1246.08C884.057 1225.17 885.926 1202.41 878.422 1182.25C880.474 1173.22 888.539 1197.64 889.294 1199.68C895.369 1187.71 910.161 1186.78 921.86 1183.05C947.861 1174.63 974.495 1168.29 1000.8 1160.8C1070.57 1141.42 1140.42 1122.35 1210.28 1103.31C1238.19 1095.58 1267.57 1086.44 1288.27 1065.34M589.641 1380.65C599.268 1328.46 599.003 1275.58 594.888 1222.82C590.366 1140.99 585.976 1059.15 581.28 977.328C560.894 1125.41 539.16 1273.33 522.541 1421.88C521.357 1432.22 521.54 1443.17 516.323 1452.39C545.152 1456.25 575.881 1460.14 603.913 1450.34C591.612 1429.06 587.273 1404.85 589.641 1380.65M443.975 1013.06C422.179 1153.41 434.613 1296.23 413.471 1436.42C442.801 1439.71 471.905 1444.57 500.93 1449.92C497.754 1432.61 503.777 1414.72 504.818 1397.28C520.581 1272.89 537.986 1148.59 561.047 1025.28C566.704 995.774 572.419 966.386 578.973 937.039C577.983 919.267 577.115 901.496 576.544 883.714C544.54 863.59 508.452 850.565 471.13 843.998C461.044 900.199 450.968 956.359 443.975 1013.06M696.28 572.027C697.556 569.845 698.771 567.612 699.935 565.349C695.995 565.5 692.156 565.641 688.277 566.284C688.45 572.53 688.103 578.826 688.032 585.122C689.973 580.515 693.769 576.311 696.28 572.027M38.0092 1451.55C131.101 1383.85 284.007 1426.98 391.85 1433.94C412.41 1299.1 404.018 1162.06 423.181 1027C440.831 892.072 459.441 755.262 503.767 625.985C522.06 575.999 553.707 561.155 605.812 561.557C632.252 560.521 660.213 556.287 685.908 556.89C691.544 556.981 697.434 557.725 702.518 559.998C709.664 543.887 713.543 526.588 715.503 509.158C715.626 508.052 717.034 507.851 717.453 508.907C723.497 524.084 724.14 540.648 720.854 556.539C718.474 567.924 704.315 612.729 687.869 595.199C686.563 631.959 694.638 675.859 730.643 694.938C793.558 722.374 880.526 697.392 916.97 639.16C924.014 627.524 930.088 615.142 937.887 603.969C883.547 588.581 853.045 523.46 865.845 473.867C873.757 512.437 888.183 555.533 924.106 577.136C1054.92 576.844 1163.68 636.434 1225.14 751.208C1237.16 767.874 1248.28 785.192 1258.47 802.813C1263.95 814.6 1280.01 830.994 1266.38 842.379C1282.12 884.398 1296.09 927 1310.85 969.353C1314.9 983.463 1324.17 998.268 1322.32 1013.1C1324.32 1022.24 1324.23 1033.06 1319.65 1041.85C1315.3 1057.52 1305.54 1078.6 1289.36 1085.24C1275.63 1097.79 1258.26 1106.42 1240.15 1112.93C1288.45 1239.17 1306.84 1375.32 1323.2 1508.7C1339.24 1625.38 1347.52 1767.32 1247.02 1851.65C1245.07 1875.78 1230.76 1906.53 1202.46 1906.79C1182.86 1926.04 1158.98 1915.48 1137.16 1906.07C1100.34 1892.43 1061.72 1884.86 1023.34 1880.65C1019.23 1883.87 1012.53 1883.33 1008.87 1879.58C985.623 1874.22 953.405 1895.93 948.709 1876.27C918.736 1873.36 889.09 1867.91 859.148 1864.73C871.767 1881.1 870.858 1905.25 861.354 1922.94C885.558 1970.56 829.176 1998.14 794.702 2017.68C748.162 2044.63 699.557 2070.21 646.331 2081.38C599.534 2091.23 550.512 2088.24 505.36 2072.51C481.634 2066.55 448.497 2046.97 462.576 2019.38C444.73 1966.88 570.051 1912.48 606.914 1886.19C591.846 1884.31 591.295 1853.03 630.486 1871.01C635.223 1867.84 639.878 1864.57 644.482 1861.24C485.964 1843.02 183.227 1792.88 68.5023 1684.5C5.47537 1628.77 -30.8887 1516.05 38.0092 1451.55" fill="black"/>
<path fill-rule="evenodd" clip-rule="evenodd" d="M807.714 106.661C750.221 99.2775 671.376 125.811 660.304 161.935C647.255 204.506 585.868 366.404 588.007 421.125C590.146 475.846 633.789 520.646 711.551 530.633C789.313 540.62 852.8 505.668 867.997 492.819C883.193 479.97 914.567 431.157 914.567 431.157C914.567 431.157 956.914 430.967 961.47 397.053C966.026 363.139 940.345 347.289 940.345 347.289C940.345 347.289 967.269 214.599 947.262 176.583C927.256 138.568 865.206 114.045 807.714 106.661Z" fill="white"/>
<path fill-rule="evenodd" clip-rule="evenodd" d="M664.587 156.427C664.729 155.654 663.606 155.417 663.305 156.078C645.639 195.463 633.892 226.415 620.447 267.393L616.483 279.446C605.898 311.592 595.241 343.777 585.568 376.202L584.996 378.139C580.079 394.935 576.291 412.046 577.487 429.663C578.604 446.13 585.401 461.969 595.175 475.143C614.064 500.604 642.543 518.649 672.206 528.892C687.206 534.071 702.945 537.348 718.792 538.251C726.691 538.709 734.648 538.609 742.522 537.964L743.392 537.892C751.332 537.216 758.445 536.107 763.482 529.364C764.749 527.665 764.737 524.473 762.691 523.253C758.827 520.965 755.914 519.84 751.385 519.773C747.06 519.711 742.732 520.463 738.417 520.722C730.171 521.217 721.891 520.935 713.676 520.066C697.541 518.354 681.67 514.267 666.906 507.493C641.54 495.846 616.713 476.612 604.305 451.016C589.708 420.906 601.27 388.124 610.023 358.066L610.288 357.156C619.188 326.427 628.032 295.691 636.738 264.917L640.461 251.725C650.268 216.869 658.477 192.14 664.587 156.427ZM944.071 103.921C931.997 93.533 915.882 89.2917 900.374 87.422L898.431 87.1973C878.555 84.952 778.396 74.5038 744.87 70.9413L736.896 70.0873C726.344 68.934 705.086 66.4147 694.122 65.2098L693.49 65.1405C688.11 64.5525 682.738 63.9038 677.35 63.3867L676.559 63.314C672.517 62.9693 669.095 63.1412 665.583 65.5704C663.797 66.8009 662.891 68.911 662.77 71.0161L662.759 71.2906L654.7 70.9658C649.228 70.7492 645.744 75.2347 647.263 80.4216L647.34 80.6731C650.112 89.3043 649.985 113.372 650.905 122.393C651.387 127.138 651.648 131.927 651.549 136.7C651.477 140.459 651.041 144.179 652.688 147.705C656.2 155.227 668.6 156.758 670.088 146.934C670.139 146.622 670.167 146.317 670.175 146.019C701.537 148.658 744.097 154.258 775.004 160.121C803.871 165.599 832.322 173.267 860.049 182.972C867.072 185.428 874.057 188.024 880.972 190.754C886.645 192.986 893.731 194.791 898.569 198.634C903.984 202.952 903.052 209.327 901.633 215.331C900.12 221.693 899.405 218.223 897.032 223.893L896.885 224.252C894.395 230.416 891.519 236.459 888.015 242.102C886.016 245.324 883.081 248.292 883.528 252.354C883.78 254.64 885.229 257.234 886.639 258.99C893.067 266.969 906.035 264.075 909.779 274.354C913.698 285.104 912.074 298.774 911.084 309.985L911.026 310.641C910.362 318.368 909.283 326.062 907.792 333.662C906.439 340.589 903.689 347.266 905.215 354.286C906.331 359.39 911.962 360.577 915.449 356.99C915.849 356.578 916.222 356.151 916.576 355.719L916.923 355.285L916.941 355.298C916.601 355.707 916.279 356.13 915.967 356.562C915.627 357.044 916.233 357.698 916.705 357.306C924.691 350.581 934.733 353.415 941.976 359.769C949.308 366.227 951.153 376.942 950.381 386.241C949.53 396.556 947.075 408.46 941.585 417.387C939.267 421.166 936.223 424.521 931.763 425.502C929.74 425.942 927.909 425.615 925.874 425.518C923.758 425.41 921.1 426.14 919.084 425.737C916.464 425.209 913.702 427.923 914.128 430.549L914.161 430.724C914.185 430.851 914.211 430.978 914.236 431.094C914.124 431.172 914.009 431.271 913.917 431.424C904.202 446.16 891.854 458.799 878.523 470.281C871.846 476.021 864.6 481.153 857.118 485.801C853.427 488.096 849.553 490.368 845.555 492.087C844.227 492.646 843.032 492.988 841.592 493.205C840.921 493.303 840.171 493.3 839.515 493.432L838.835 493.571C838.788 493.58 838.744 493.588 838.702 493.595C836.812 493.568 835.083 494.602 834.217 496.456C831.96 501.292 834.314 506.123 839.138 508.153C844.362 510.364 849.811 508.359 854.499 505.856L854.811 505.688C864.379 500.506 873.358 494.464 881.406 487.099C897.322 472.562 908.406 454.79 915.096 434.416C915.815 436.68 916.912 438.715 919.065 440.309C922.409 442.797 926.712 443.349 930.749 443.178C938.87 442.852 946.267 438.872 951.636 432.892C957.209 426.691 960.02 418.654 962.118 410.741C964.206 402.815 965.761 394.792 965.746 386.577C965.726 374.779 962.33 362.682 953.68 355.107C962.751 340.576 966.22 323.421 967.885 306.447C969.941 285.55 969.051 264.037 968.935 243.057L968.608 183.411V183.411L968.59 181.006C968.465 166.968 967.938 152.804 964.444 139.144C960.996 125.681 954.748 113.104 944.071 103.921ZM941.513 385.564C929.342 377.599 914.573 381.6 906.016 392.924C898.577 402.769 915.736 412.112 920.157 401.546L920.287 401.22C923.336 393.182 932.338 387.051 940.915 387.021C941.626 387.01 942.274 386.064 941.513 385.564Z" fill="black"/>
<path fill-rule="evenodd" clip-rule="evenodd" d="M690.308 435.511C697.489 438.629 705.471 439.85 713.361 438.596C720.517 437.458 728.17 433.913 734.002 428.672C739.183 424.015 742.921 418.028 743.678 411.222C743.765 410.445 743.571 409.762 743.208 409.205C742.819 408.605 742.225 408.151 741.558 407.901C740.873 407.645 740.118 407.607 739.445 407.815C738.835 408.002 738.285 408.383 737.893 408.993C736.981 409.918 736.075 410.827 735.169 411.709C727.902 418.647 721.086 423.655 711.388 424.519C706.127 424.989 701.08 423.833 696.612 421.512C691.829 419.028 687.707 415.21 684.683 410.614C683.317 408.537 681.518 407.53 679.665 407.278C677.564 406.994 675.361 407.704 673.595 409.064C671.86 410.401 670.562 412.354 670.188 414.523C669.86 416.428 670.228 418.508 671.66 420.505C676.379 427.085 682.919 432.302 690.308 435.511ZM702.995 338.547C694.752 342.212 681.71 351.554 688.456 364.132C696.833 375.535 712.269 365.677 719.815 361.291C726.709 358.026 732.517 369.446 725.995 373.454C671.637 403.83 660.093 334.272 699.83 332.586C704.205 332.399 705.183 337.366 702.995 338.547ZM777.147 327.283C779.807 326.027 782.767 325.858 785.783 327.727C788.141 329.188 792.044 333.547 794.46 338.929C796.112 342.611 797.08 346.806 796.236 350.938C796.04 351.897 796.306 352.657 796.803 353.258C797.195 353.732 797.8 354.121 798.544 354.314C799.176 354.478 799.904 354.497 800.512 354.39C801.669 354.186 802.35 353.54 802.647 352.98C805.517 347.572 805.409 341.112 803.746 335.083C801.501 326.947 796.455 319.725 792.872 317.145C786.741 312.73 778.988 311.567 771.923 314.356C765.908 316.729 761.754 321.274 757.607 325.919C756.725 326.906 755.85 327.886 754.953 328.844C753.155 330.764 752.733 332.843 753.093 334.718C753.492 336.795 754.946 338.692 756.921 339.84C758.747 340.902 760.972 341.304 763.062 340.723C764.827 340.232 766.54 339.052 767.813 336.841C769.956 333.117 773.242 329.127 777.147 327.283V327.283ZM651.211 320.005C652.781 321.099 654.064 321.532 656.003 321.213C657.075 321.035 658.172 320.572 659.074 319.875C659.967 319.185 660.665 318.274 661.027 317.21C661.919 314.585 663.718 312.251 666.032 310.876C668.009 309.7 670.372 309.247 672.833 309.99C675.489 310.792 677.851 312.864 679.368 315.145C679.875 315.908 680.242 316.748 680.611 317.583C681.303 319.144 681.983 320.6 683.056 321.82C683.463 322.283 684.118 322.653 684.788 322.739C685.06 322.774 685.342 322.765 685.616 322.716C688.665 320.352 689.449 318.362 689.624 316.311C689.807 314.16 689.242 311.885 688.138 309.689C685.55 304.538 679.979 299.872 675.995 298.465C670.54 296.539 664.783 297.271 659.914 299.83C654.904 302.464 650.855 307.032 649.069 312.537C648.639 313.862 648.559 315.343 648.913 316.681C649.259 317.988 650.004 319.165 651.211 320.005ZM771.266 275.15C774.211 278.862 778.131 279.882 782.104 280.852C784.311 281.393 786.073 281.827 787.782 282.45C792.478 284.163 797.047 286.421 801.104 289.349C805.346 292.41 809.931 296.034 813.014 300.317C813.747 301.336 814.425 302.394 815.105 303.454C815.724 304.421 816.321 305.352 816.96 306.257C817.694 307.297 818.378 308.376 819.059 309.453C819.452 310.337 819.524 310.552 819.598 310.775C819.708 311.11 819.838 311.486 819.99 311.891C820.198 312.445 820.447 313.055 820.718 313.613C821.158 314.627 821.425 314.925 821.67 315.075C822.077 315.322 822.474 315.469 822.877 315.469C823.256 315.469 823.629 315.335 824.013 315.087C825.929 313.849 826.747 311.518 827.021 308.967C827.438 305.096 826.563 300.639 825.588 297.843C823.32 291.345 819.902 284.455 815.397 279.244C810.257 273.297 804.409 268.543 797.459 264.892C793.14 262.623 788.087 260.4 783.121 259.961C779.546 259.645 776.015 260.267 772.872 262.547C770.942 263.946 769.819 266.146 769.523 268.449C769.222 270.799 769.776 273.273 771.266 275.15ZM648.122 289.867C648.291 290.245 648.556 290.525 648.867 290.713C649.193 290.909 649.574 291.003 649.952 290.988C650.329 290.973 650.7 290.851 651.011 290.631C651.309 290.421 651.554 290.122 651.696 289.736C655.192 280.206 660.47 273.459 670.338 269.939C675.193 268.207 680.622 267.408 685.733 266.871C687.219 266.715 688.77 266.69 690.333 266.663C695.23 266.578 700.176 266.396 703.809 262.913C705.998 260.815 707.175 257.923 707.078 255.128C706.988 252.496 705.785 249.939 703.229 248.171C696.864 243.771 687.949 246.141 680.686 248.203C680.148 248.356 679.619 248.506 679.102 248.65C672.005 250.627 665.383 253.59 659.647 258.306C655.096 262.047 650.577 267.862 648.252 274.142C646.317 279.366 645.903 284.9 648.122 289.867Z" fill="black"/>
<path fill-rule="evenodd" clip-rule="evenodd" d="M598.025 303.875C595.954 368.096 659.672 386.837 682.514 326.863C680.808 325.72 679.764 323.892 680.603 320.863C683.13 307.347 681.504 292.28 670.585 282.521C659.3 272.448 644.58 268.973 629.85 266.495C601.929 260.728 598.282 284.112 598.025 303.875M698.977 294.153C707.844 295.386 718.922 297.721 725.837 304.481C729.059 299.079 735.817 293.915 742.109 291.641C720.848 288.407 699.454 282.378 678.44 276.895C682.911 281.276 686.712 287.327 688.705 293.885C691.842 292.891 695.915 293.778 698.977 294.153M731.612 335.036C740.833 422.896 808.363 397.622 816.95 388.14C832.148 372.629 842.228 330.035 833.886 316.637C820.843 303.521 799.212 302.349 781.615 298.883C749.121 293.418 724.347 298.858 731.612 335.036M574.987 266.893C581.774 267.238 588.891 268.354 594.528 272.375C597.884 264.709 605.061 259.095 612.325 257.372C613.324 256.506 613.301 255.939 616.055 256.598C634.063 254.608 652.686 260.784 668.148 268.999C693.676 275.885 720.562 282.544 746.159 290.289C772.635 283.824 846.826 295.673 846.52 323.427C852.453 323.62 863.113 320.896 866.852 327.904C903.55 328.389 938.826 343.417 973.912 353.636C982.614 356.92 984.022 375.506 973.848 373.404C968.385 370.81 976.035 362.388 968.43 360.266C934.607 350.244 901.824 338.792 867.08 331.827C867.205 338.025 842.867 333.997 843.144 330.442C843.087 330.458 843.03 330.466 842.973 330.48C844.93 353.765 833.704 384.72 820.363 396.51C801.899 411.767 762.839 409.999 748.046 395.328C728.189 380.659 715.283 322.814 724.902 306.128C714.001 300.383 702.371 299.396 690.033 299.065C691.377 307.273 692.667 327.108 685.544 327.512C679.942 365.408 641.145 382.629 612.135 361.386C586.929 343.533 584.694 301.137 592.554 277.081C587.927 283.037 560.442 270.634 574.987 266.893" fill="black"/>
</svg>
