<svg width="1333" height="2088" viewBox="0 0 1333 2088" fill="none" xmlns="http://www.w3.org/2000/svg">
<path fill-rule="evenodd" clip-rule="evenodd" d="M737.972 1375.74C740.258 1399.59 735.584 1422.36 724.452 1441.62L720.83 1447.89L727.724 1450.3C740.27 1454.69 754.222 1456.82 770.378 1456.82C787.005 1456.82 804.295 1454.5 818.188 1452.64L827.083 1451.45L822.714 1443.72C819.2 1437.51 818.55 1429.99 817.861 1422.02C817.675 1419.88 817.484 1417.67 817.233 1415.48C804.069 1297.79 787.429 1178.57 771.337 1063.28C767.101 1032.94 762.723 1001.57 758.475 970.713L746.29 971.183C743.012 1028.3 739.831 1086.39 736.755 1142.56C735.403 1167.26 734.049 1191.96 732.685 1216.66C727.823 1279.1 729.502 1329.66 737.972 1375.74M742.945 2081.43C725.05 2081.43 707.121 2079.57 689.657 2075.89C635.007 2064.42 585.358 2037.35 543.11 2012.88C540.953 2011.66 538.765 2010.43 536.518 2009.18C519.978 1999.92 499.394 1988.41 486.494 1974.36C472.343 1958.95 469.908 1943.59 478.831 1926.03L480.243 1923.25L478.768 1920.5C469.528 1903.3 470.215 1882.02 480.438 1868.76L489.029 1857.61L474.904 1859.1C460.661 1860.62 446.305 1862.66 432.422 1864.65C417.018 1866.84 401.087 1869.12 385.399 1870.64L381.039 1871.06L380.036 1875.26C379.478 1877.6 378.789 1879.02 373.949 1879.02C369.752 1879.02 364.112 1877.79 358.143 1876.49C350.734 1874.88 342.337 1873.05 334.239 1873.05C330.677 1873.05 327.474 1873.39 324.444 1874.09L322.681 1874.49L321.426 1875.78C320.624 1876.6 319.258 1877.11 317.863 1877.11C316.807 1877.11 315.828 1876.82 315.174 1876.3L313.195 1874.76L310.685 1875.03C266.948 1879.83 229.235 1888.26 195.393 1900.8L195.24 1900.86L194.506 1901.17C182.269 1906.45 169.617 1911.92 158.095 1911.92C149.672 1911.92 142.832 1909.05 136.568 1902.9L134.798 1901.16L132.301 1901.14C106.965 1900.9 95.3886 1871.35 93.7878 1851.55L93.5867 1849.06L91.6553 1847.44C47.501 1810.38 21.4344 1759.48 11.9628 1691.83C3.33655 1630.22 9.95989 1565.25 17.5765 1509.83C35.1956 1366.19 53.5721 1237.43 100.285 1115.31L102.467 1109.61L96.6514 1107.51C76.4761 1100.26 61.057 1091.61 49.5121 1081.07L48.7128 1080.34L47.7062 1079.92C31.1601 1073.12 23.0565 1048.03 20.9668 1040.5L20.7994 1039.89L20.5074 1039.33C17.1314 1032.85 16.3525 1023.84 18.3718 1014.61L18.5882 1013.62L18.4626 1012.6C17.3724 1003.84 20.9913 994.673 24.8226 984.969C26.5734 980.536 28.3823 975.954 29.7044 971.39C34.2492 958.348 38.789 945.075 43.1807 932.237C53.0341 903.434 63.2212 873.65 74.074 844.677L75.5583 840.715L72.2885 837.984C66.7065 833.32 68.5705 827.831 76.62 814.706C78.5219 811.606 80.3207 808.673 81.6886 805.783C92.0064 787.951 103.064 770.834 114.561 754.9L114.798 754.574L114.987 754.219C173.982 644.023 278.627 583.336 409.645 583.336L412.316 583.341L413.792 582.453C438.348 567.684 455.877 542.344 467.381 504.984L467.748 503.793L467.607 502.556C467.212 499.113 466.781 494.598 466.929 490.218C467.303 479.124 471.651 469.224 478.856 463.055C492.527 451.353 513.28 450.373 533.365 450.373L536.249 450.378C561.929 450.452 580.058 454.911 593.305 464.413C608.696 475.454 617.201 493.277 619.309 518.899C619.939 526.566 619.918 534.509 619.898 542.19L619.893 544.333L620.152 545.184C621.997 551.274 624.16 557.125 626.577 562.577L629.064 568.186L634.719 565.657C638.377 564.023 643.014 563.182 648.898 563.087C650.595 563.048 652.25 563.03 653.919 563.03C667.581 563.03 682.195 564.277 696.33 565.483C706.98 566.393 717.993 567.333 728.653 567.751L728.799 567.757C728.799 567.757 730.271 567.748 730.931 567.748C756.84 567.748 775.622 571.822 790.037 580.573C805.559 589.993 816.72 605.113 825.16 628.155C870.427 760.233 889.037 902.498 905.453 1028.01C914.764 1093.65 917.596 1160.94 920.335 1226.01C923.227 1294.69 926.216 1365.72 936.801 1435.15L937.637 1440.63L943.258 1440.27C967.995 1438.67 994.726 1435.24 1023.03 1431.59C1066.02 1426.06 1110.49 1420.34 1153.47 1420.34C1213.57 1420.34 1259.13 1432.17 1292.75 1456.49C1316.19 1478.58 1328.31 1508.49 1327.82 1543C1327.11 1591.77 1301.32 1645.68 1262.11 1680.36L1261.97 1680.49C1212.41 1727.32 1121.94 1767.93 993.085 1801.21C874.594 1831.8 752.029 1848.43 689.515 1855.62L674.043 1857.4L686.601 1866.48C691.684 1870.16 696.322 1873.39 700.78 1876.38L703.656 1878.3L706.806 1876.85C715.79 1872.73 721.496 1871.87 724.702 1871.87C727.547 1871.87 730.979 1872.49 731.168 1875.43C731.292 1877.36 729.92 1880.22 727.023 1880.58L711.645 1882.5L724.202 1891.46C732.589 1897.44 745.103 1904.65 759.594 1913C807.002 1940.32 878.646 1981.61 866.324 2017.87L865.515 2020.25L866.661 2022.49C869.971 2028.98 870.254 2035.01 867.522 2040.91C861.673 2053.57 843.374 2063.17 827.833 2067.08L827.567 2067.14L827.307 2067.23C800.266 2076.66 771.882 2081.43 742.945 2081.43" fill="#F5F5F5"/>
<path fill-rule="evenodd" clip-rule="evenodd" d="M690.924 1848.52C692.792 1846.62 693.578 1844.13 691.832 1841.2C685.085 1832.58 671.088 1838.47 662.381 1840.46C659.092 1837.73 655.827 1834.98 652.682 1832.09C653.775 1825.31 645.628 1820.8 642.28 1815.57C638.993 1811.72 635.9 1807.35 631.958 1804.12C622.353 1796.62 609.041 1801.69 597.893 1801.35C589.307 1790.43 580.467 1779.85 572.3 1768.57C581.712 1752.74 582.376 1734.21 579.252 1716.58C723.632 1661.79 848.606 1558.04 1004.76 1534.07C1010.13 1533.17 1013.14 1526.65 1011.8 1521.86C1000.91 1495.86 844.379 1562.94 820.981 1575.09C751.971 1608.14 687.329 1649.34 620.26 1685.68C606.274 1693.11 590.89 1697.11 575.597 1700.97C552.097 1623.83 512.344 1553.12 481.862 1478.74C483.841 1475.31 485.527 1471.71 486.956 1468.01C485.945 1508.91 525.718 1508.34 531.21 1469.54C528.944 1489.77 544.236 1533.08 566.307 1504.66C571.483 1497.52 573.321 1488.38 574.198 1479.15C575.332 1485.53 576.618 1491.88 578.047 1498.2C583.712 1510.73 599.179 1495.5 602.772 1488.96C604.845 1488.59 606.785 1487.64 608.204 1486.49C647.231 1491.91 693.199 1491.6 721.836 1460.78C770.408 1479.42 824.167 1462.72 873.29 1455.28C973.253 1443.78 1073.61 1426.26 1174.47 1427.6C1219.51 1430.22 1272.63 1437.49 1301.11 1475.92C1337.65 1531.31 1317 1606.13 1276.69 1654.08C1179.74 1776.85 846.952 1830.24 690.924 1848.52M693.65 1892.74C695.415 1892.27 697.192 1891.84 698.958 1891.43C727.256 1914.99 860.53 1976.18 850.393 2012.73C846.809 2017.27 838.234 2018.31 832.812 2019.78C823.369 2022.33 813.835 2024.54 804.209 2026.29C773.092 2031.96 740.864 2032.94 709.788 2026.49C698.356 2024.75 688.035 2019.87 677.622 2015.15C643.975 2000.35 606.917 1983.99 573.432 1969.31C530.893 1952.44 456.278 1919.2 486.966 1863.11C516.04 1895.82 552.944 1892.96 571.534 1852.31C577.945 1839.97 583.54 1823.34 598.597 1818.35C606.54 1812.98 616.697 1811.86 623.333 1817.85C623.813 1817.1 624.241 1816.06 624.475 1815.13C631.958 1825.78 638.411 1837 647.179 1846.73C644.169 1846.89 612.828 1870.09 622.077 1870.1C633.204 1864.37 644.26 1859.59 656.276 1856.51C664.984 1865.27 674.56 1873.41 684.482 1880.94C674.845 1887.31 666.188 1895.11 659.226 1903.56C658.624 1904.31 659.359 1905.27 660.257 1904.87C671.068 1900.05 682.185 1895.82 693.65 1892.74M837.101 2050.78C728.858 2099.41 614.267 2045.26 521.96 1987.53C500.656 1975.64 472.633 1958.77 476.941 1930.76C492.632 1953.72 518.501 1966.8 543.328 1978.13C585.04 1996.99 627.027 2015.24 668.843 2033.87C672.792 2046.97 691.678 2047.47 703.093 2050.38C753.901 2060.24 808.517 2055.34 856.334 2035.69C853.566 2043.89 844.512 2047.65 837.101 2050.78M405.235 1861.43C402.561 1861.78 399.886 1862.09 397.212 1862.39C397.488 1858.85 395.354 1855.31 391.924 1854.21C393.466 1846.71 394.037 1838.96 393.21 1831.34C397.682 1842.9 412.117 1839.39 421.284 1836.06C434.382 1832.5 447.398 1828.67 460.342 1824.58C465.446 1834.07 470.857 1843.41 477.503 1852C453.307 1854.15 429.339 1858.43 405.235 1861.43M394.589 1825.09C393.945 1826.45 393.027 1827.88 393.006 1829.51C392.353 1823.89 391.077 1818.34 389.137 1813.02C390.953 1817.04 392.771 1821.06 394.589 1825.09M379.316 1794.94C367.413 1779.43 345.414 1766.74 325.078 1771.07C323.771 1771.35 323.74 1773.45 325.078 1773.71C352.396 1777.43 376.387 1799.1 377.335 1827.12C379.49 1839.8 370.67 1852.25 373.641 1864.42C373.048 1864.46 372.456 1864.49 371.874 1864.53C371.66 1865.35 371.465 1866.07 371.21 1866.7C374.161 1867.2 375.029 1871.94 371.547 1872.79C369.486 1873.29 367.332 1873.55 365.137 1873.66C353.999 1870.66 342.249 1869.96 331.601 1865.52C321.066 1860.86 323.7 1847.78 319.984 1838.72C317.258 1828.26 314.123 1817.86 310.174 1807.83C309.888 1807.02 308.795 1807.21 308.704 1808.02C305.917 1828.02 306.008 1848.37 306.682 1868.53C303.028 1868.91 299.393 1869.32 295.748 1869.77C295.984 1864.14 279.088 1795.52 270.187 1813.13C274.668 1832.49 275.209 1852.72 275.689 1872.64C249.259 1876.99 223.217 1883.48 197.879 1892.31C180.024 1897.72 158.789 1913.73 141.456 1899.26C128.032 1888.16 123.509 1868.79 124.775 1852.3C142.232 1754.78 280.109 1743.38 361.502 1750.59C369.19 1768.33 377.02 1786.01 384.952 1803.66C383.308 1800.62 381.43 1797.7 379.316 1794.94M101.714 1850.4C100.223 1828.26 103.95 1800.69 120.355 1784.18C157.902 1752.43 210.476 1742.45 257.395 1730.95C279.251 1726.64 301.404 1723.77 323.649 1722.34C331.54 1721.72 341.565 1723.51 347.138 1717.05C350.008 1723.85 352.916 1730.64 355.826 1737.43C262.418 1725.19 67.5355 1767.71 122.111 1895.69C110.554 1883.17 102.897 1867.92 101.714 1850.4M565.787 1777.19C570.085 1787.94 575.342 1798.16 582.212 1807.52C574.403 1812.63 568.033 1820.18 563.541 1828.3C534.753 1903.63 503.964 1863.28 465.712 1822.85C498.083 1810.64 540.96 1801.48 565.787 1777.19M86.6051 1835.07C11.7454 1761.11 -2.78141 1637.9 24.8737 1541.05C27.334 1505.13 39.8906 1470.91 51.1404 1436.9C86.9624 1333.76 134.075 1234.52 190.58 1140.83C260.682 1160.08 330.662 1179.86 400.928 1198.48C410.605 1200.59 420.293 1204.74 430.227 1205.34C433.779 1207.61 437.342 1210.1 441.038 1212.29C435.658 1238.65 440.619 1265.57 441.875 1292.09C443.017 1312.97 440.762 1333.41 437.995 1354.07C434.902 1384.12 422.171 1481.87 447.684 1499.76C456.33 1503.94 464.058 1491.58 467.784 1494.97C471.143 1492.63 474.277 1489.58 476.829 1486.22C486.68 1518.09 502.779 1547.65 512.723 1579.54C525.952 1626.4 569.401 1702.27 559.754 1746.97C552.291 1774.58 519.644 1780.53 496.083 1789.55C468.856 1799.03 441.324 1807.73 413.342 1814.79C399.683 1785.79 386.626 1756.53 373.814 1727.15C315.257 1591.61 263.398 1453.24 217.051 1313.22C216.183 1310.11 205.525 1276.44 203.575 1285.83C203.412 1284.87 202.197 1282.37 201.738 1284.5C209.598 1317.38 217.57 1350.25 226.198 1382.95C205.005 1379.98 182.219 1378.82 162.823 1389.21C161.822 1389.74 162.557 1391.06 163.546 1390.9C186.516 1386.92 208.669 1394.44 230.73 1399.84C261.713 1505.32 301.69 1608.13 344.005 1709.65C330.917 1705.48 315.727 1710.09 302.068 1710.42C259.049 1714.87 216.52 1724.28 175.879 1738.93C124.796 1755.49 88.6775 1777.09 86.6051 1835.07M45.392 1065.33C32.816 1051.79 22.933 1034.49 24.8431 1016.13C32.3974 1006.06 34.8986 992.912 39.2985 981.264C56.5 932.526 72.4662 883.416 91.1888 835.202C131.013 847.452 170.192 862.146 207.148 881.445C213.947 884.916 220.675 888.516 227.321 892.247C234.283 896.15 241.878 902.928 250.229 900.987C241.102 913.911 222.308 927.358 219.133 942.292C218.449 947.02 221.798 951.405 226.943 950.349C307.478 1007.57 390.648 1063.57 466.774 1127.31C523.778 1172.45 567.543 1209.05 587.092 1282.29C600.271 1329.73 600.311 1379.32 598.373 1428.09C597.995 1437.58 597.985 1447.28 597.219 1456.83C598.362 1463.97 596.188 1478.5 588.164 1478.76C588.348 1480.49 588.92 1482.09 589.828 1483.5C589.573 1483.84 589.307 1484.16 589.032 1484.5C588.634 1482.54 588.246 1480.6 587.878 1478.65C581.631 1450.97 580.793 1418.86 581.835 1389.39C582.273 1380.94 569.319 1381.15 568.594 1389.39C566.644 1411.67 564.695 1433.95 562.745 1456.21C560.406 1470.65 564.092 1489.52 552.556 1500.5C540.827 1489.65 544.706 1468.27 545.278 1454.28C546.195 1431.46 547.187 1408.65 548.034 1385.83C548.299 1378.6 536.325 1376.74 534.966 1384.09C531.118 1405.05 526.953 1425.95 522.471 1446.79C519.766 1454.85 517.908 1490.99 504.392 1484.72C496.338 1479.21 502.146 1446.96 501.085 1436.28C501.585 1415.14 501.88 1394.03 503.433 1372.94C504.066 1364.43 490.213 1362.62 488.314 1370.93C485.231 1384.37 482.28 1397.82 479.606 1411.36C473.736 1434.18 475.869 1465.11 454.676 1480.28C446.377 1421 458.32 1362.14 459.995 1303.07C458.995 1283.93 455.707 1264.98 452.808 1246.08C449.603 1225.17 447.735 1202.41 455.238 1182.24C453.186 1173.21 445.121 1197.64 444.366 1199.67C438.292 1187.7 423.499 1186.78 411.8 1183.05C385.799 1174.63 359.165 1168.28 332.857 1160.8C263.09 1141.42 193.243 1122.34 123.377 1103.3C95.4662 1095.58 66.0858 1086.43 45.392 1065.33M744.019 1380.64C734.392 1328.45 734.658 1275.57 738.772 1222.81C743.294 1140.99 747.684 1059.14 752.38 977.323C772.766 1125.41 794.5 1273.32 811.119 1421.88C812.303 1432.22 812.12 1443.16 817.337 1452.38C788.508 1456.24 757.779 1460.14 729.747 1450.33C742.049 1429.06 746.387 1404.84 744.019 1380.64M889.685 1013.06C911.481 1153.41 899.047 1296.22 920.189 1436.41C890.859 1439.7 861.755 1444.57 832.731 1449.92C835.907 1432.6 829.883 1414.72 828.842 1397.28C813.079 1272.89 795.674 1148.58 772.613 1025.28C766.957 995.768 761.241 966.38 754.687 937.033C755.677 919.262 756.545 901.49 757.117 883.708C789.121 863.584 825.208 850.559 862.531 843.992C872.616 900.193 882.693 956.353 889.685 1013.06M637.38 572.021C636.104 569.839 634.889 567.606 633.725 565.343C637.666 565.494 641.504 565.635 645.383 566.278C645.21 572.524 645.557 578.82 645.628 585.116C643.688 580.51 639.891 576.306 637.38 572.021M1295.65 1451.55C1202.56 1383.84 1049.65 1426.98 941.811 1433.94C921.25 1299.1 929.642 1162.06 910.479 1027C892.83 892.066 874.219 755.256 829.894 625.979C811.6 575.993 779.953 561.149 727.848 561.551C701.408 560.516 673.447 556.281 647.752 556.884C642.117 556.975 636.226 557.72 631.142 559.993C623.996 543.881 620.117 526.582 618.157 509.153C618.034 508.046 616.626 507.845 616.207 508.901C610.164 524.078 609.52 540.642 612.807 556.533C615.186 567.918 629.346 612.723 645.792 595.193C647.097 631.953 639.022 675.853 603.018 694.932C540.102 722.369 453.134 697.386 416.69 639.154C409.646 627.518 403.572 615.136 395.773 603.963C450.113 588.576 480.615 523.454 467.815 473.861C459.903 512.431 445.477 555.527 409.554 577.13C278.74 576.839 169.979 636.428 108.523 751.202C96.4973 767.868 85.3801 785.186 75.1919 802.807C69.7089 814.595 53.6518 830.988 67.2802 842.373C51.5386 884.393 37.5732 926.995 22.8116 969.347C18.7577 983.458 9.48832 998.262 11.3371 1013.1C9.33621 1022.24 9.42809 1033.05 14.0117 1041.84C18.3606 1057.51 28.119 1078.59 44.3007 1085.24C58.0312 1097.78 75.3961 1106.42 93.5062 1112.93C45.2082 1239.17 26.8235 1375.31 10.4592 1508.69C-5.57958 1625.38 -13.8577 1767.32 86.6358 1851.65C88.5856 1875.78 102.897 1906.52 131.196 1906.78C150.796 1926.03 174.685 1915.47 196.501 1906.06C233.323 1892.42 271.942 1884.86 310.316 1880.64C314.431 1883.86 321.127 1883.33 324.792 1879.58C348.037 1874.22 380.256 1895.92 384.952 1876.26C414.924 1873.35 444.57 1867.9 474.512 1864.72C461.893 1881.1 462.802 1905.24 472.307 1922.93C448.102 1970.56 504.484 1998.13 538.959 2017.67C585.499 2044.63 634.103 2070.21 687.329 2081.38C734.126 2091.22 783.148 2088.24 828.3 2072.51C852.026 2066.54 885.163 2046.96 871.084 2019.38C888.93 1966.88 763.609 1912.48 726.746 1886.18C741.814 1884.31 742.365 1853.03 703.174 1871C698.437 1867.83 693.782 1864.56 689.178 1861.23C847.696 1843.01 1150.43 1792.87 1265.16 1684.5C1328.18 1628.77 1364.55 1516.04 1295.65 1451.55" fill="black"/>
<path fill-rule="evenodd" clip-rule="evenodd" d="M525.947 106.656C583.439 99.2716 662.284 125.805 673.356 161.929C686.405 204.501 747.792 366.398 745.653 421.119C743.514 475.84 699.871 520.64 622.109 530.627C544.347 540.614 480.86 505.662 465.663 492.813C450.467 479.964 419.093 431.151 419.093 431.151C419.093 431.151 376.747 430.961 372.19 397.047C367.634 363.133 393.315 347.283 393.315 347.283C393.315 347.283 366.391 214.593 386.398 176.578C406.404 138.562 468.454 114.039 525.947 106.656Z" fill="#F5F5F5"/>
<path fill-rule="evenodd" clip-rule="evenodd" d="M669.072 156.421C668.931 155.648 670.053 155.411 670.354 156.072C688.02 195.457 699.768 226.409 713.212 267.387L717.176 279.44C727.762 311.586 738.419 343.771 748.092 376.197L748.664 378.133C753.58 394.929 757.369 412.04 756.172 429.657C755.055 446.125 748.258 461.963 738.485 475.137C719.595 500.598 691.117 518.644 661.453 528.886C646.453 534.065 630.715 537.342 614.867 538.245C606.969 538.703 599.011 538.603 591.137 537.958L590.267 537.886C582.327 537.21 575.214 536.101 570.177 529.358C568.91 527.659 568.922 524.467 570.968 523.247C574.832 520.959 577.745 519.834 582.274 519.767C586.599 519.705 590.927 520.457 595.242 520.716C603.488 521.211 611.768 520.929 619.983 520.06C636.118 518.348 651.989 514.262 666.753 507.487C692.12 495.841 716.946 476.606 729.355 451.01C743.951 420.901 732.389 388.118 723.636 358.06L723.371 357.15C714.472 326.421 705.627 295.685 696.921 264.911L693.198 251.719C683.391 216.863 675.182 192.134 669.072 156.421ZM389.589 103.915C401.662 93.5271 417.778 89.2859 433.285 87.4162L435.228 87.1915C455.104 84.9461 555.263 74.498 588.789 70.9354L596.764 70.0815C607.316 68.9282 628.573 66.4088 639.537 65.2039L640.17 65.1346C645.549 64.5466 650.921 63.8979 656.309 63.3808L657.1 63.3081C661.142 62.9634 664.564 63.1353 668.076 65.5646C669.862 66.795 670.768 68.9051 670.889 71.0102L670.9 71.2847L678.959 70.9599C684.431 70.7433 687.915 75.2288 686.397 80.4158L686.319 80.6673C683.547 89.2984 683.674 113.366 682.754 122.388C682.272 127.133 682.011 131.921 682.11 136.695C682.182 140.453 682.619 144.174 680.972 147.699C677.459 155.221 665.059 156.752 663.571 146.929C663.521 146.616 663.492 146.311 663.484 146.013C632.123 148.652 589.562 154.252 558.655 160.115C529.789 165.593 501.337 173.261 473.61 182.966C466.587 185.423 459.603 188.018 452.687 190.748C447.014 192.98 439.928 194.785 435.09 198.628C429.675 202.947 430.607 209.321 432.027 215.325C433.54 221.687 434.255 218.217 436.627 223.887L436.775 224.246C439.265 230.41 442.14 236.453 445.644 242.096C447.643 245.318 450.578 248.287 450.131 252.348C449.879 254.634 448.431 257.229 447.021 258.984C440.593 266.963 427.624 264.069 423.88 274.348C419.961 285.098 421.585 298.769 422.575 309.979L422.633 310.635C423.297 318.362 424.376 326.056 425.867 333.656C427.22 340.583 429.97 347.26 428.444 354.28C427.328 359.384 421.697 360.571 418.211 356.984C417.81 356.572 417.437 356.145 417.083 355.713L416.736 355.28L416.718 355.292C417.058 355.701 417.38 356.124 417.693 356.556C418.032 357.038 417.427 357.692 416.954 357.3C408.968 350.575 398.927 353.409 391.684 359.763C384.351 366.222 382.506 376.936 383.278 386.235C384.129 396.55 386.584 408.454 392.075 417.381C394.392 421.16 397.436 424.515 401.896 425.496C403.92 425.937 405.75 425.609 407.785 425.512C409.901 425.404 412.559 426.134 414.575 425.731C417.195 425.203 419.957 427.917 419.531 430.544L419.498 430.718C419.474 430.845 419.448 430.972 419.423 431.088C419.535 431.167 419.65 431.265 419.742 431.418C429.457 446.154 441.805 458.793 455.137 470.275C461.814 476.015 469.059 481.147 476.541 485.795C480.233 488.09 484.106 490.362 488.104 492.081C489.432 492.64 490.627 492.982 492.068 493.199C492.738 493.298 493.489 493.294 494.144 493.426L494.824 493.565C494.871 493.574 494.915 493.582 494.957 493.589C496.848 493.562 498.576 494.596 499.442 496.451C501.699 501.286 499.345 506.117 494.521 508.147C489.297 510.358 483.848 508.353 479.16 505.85L478.849 505.683C469.28 500.5 460.301 494.458 452.253 487.093C436.337 472.556 425.253 454.784 418.563 434.41C417.844 436.674 416.747 438.709 414.595 440.303C411.25 442.791 406.947 443.343 402.911 443.172C394.789 442.846 387.392 438.866 382.024 432.886C376.451 426.685 373.639 418.648 371.542 410.735C369.453 402.809 367.898 394.786 367.913 386.571C367.933 374.773 371.329 362.676 379.979 355.101C370.908 340.57 367.439 323.416 365.774 306.441C363.718 285.544 364.609 264.031 364.724 243.051L365.051 183.405V183.405L365.069 181C365.194 166.962 365.722 152.798 369.215 139.138C372.663 125.675 378.911 113.098 389.589 103.915ZM392.146 385.558C404.318 377.593 419.087 381.594 427.643 392.918C435.082 402.763 417.923 412.106 413.502 401.541L413.372 401.214C410.323 393.176 401.321 387.045 392.745 387.015C392.033 387.004 391.386 386.058 392.146 385.558Z" fill="black"/>
<path fill-rule="evenodd" clip-rule="evenodd" d="M643.352 435.505C636.171 438.623 628.189 439.845 620.299 438.59C613.143 437.452 605.49 433.907 599.658 428.666C594.477 424.01 590.74 418.022 589.982 411.216C589.895 410.439 590.09 409.756 590.452 409.199C590.842 408.599 591.435 408.145 592.102 407.895C592.787 407.639 593.542 407.602 594.215 407.809C594.825 407.997 595.375 408.378 595.767 408.987C596.679 409.912 597.585 410.821 598.491 411.703C605.758 418.642 612.575 423.649 622.272 424.514C627.533 424.983 632.58 423.827 637.048 421.506C641.831 419.022 645.953 415.204 648.977 410.608C650.343 408.531 652.142 407.524 653.996 407.273C656.096 406.988 658.299 407.698 660.065 409.058C661.8 410.395 663.098 412.348 663.472 414.518C663.8 416.422 663.432 418.502 662 420.499C657.282 427.08 650.741 432.296 643.352 435.505ZM630.665 338.541C638.908 342.207 651.95 351.548 645.204 364.126C636.827 375.529 621.391 365.671 613.845 361.285C606.951 358.02 601.143 369.44 607.665 373.449C662.024 403.824 673.567 334.266 633.83 332.58C629.455 332.394 628.477 337.36 630.665 338.541ZM556.513 327.277C553.854 326.021 550.894 325.853 547.877 327.722C545.519 329.182 541.616 333.541 539.201 338.923C537.548 342.605 536.58 346.8 537.424 350.932C537.62 351.891 537.354 352.651 536.857 353.252C536.465 353.726 535.86 354.116 535.116 354.309C534.484 354.472 533.756 354.491 533.148 354.384C531.991 354.18 531.31 353.534 531.013 352.974C528.143 347.566 528.251 341.106 529.914 335.077C532.159 326.941 537.206 319.719 540.788 317.139C546.919 312.724 554.672 311.561 561.737 314.35C567.752 316.723 571.906 321.269 576.053 325.913C576.935 326.9 577.81 327.88 578.707 328.838C580.505 330.758 580.927 332.837 580.567 334.712C580.168 336.789 578.714 338.686 576.739 339.835C574.913 340.896 572.688 341.298 570.598 340.717C568.833 340.226 567.12 339.046 565.847 336.835C563.704 333.111 560.419 329.121 556.513 327.277V327.277ZM682.449 320C680.879 321.093 679.596 321.526 677.657 321.207C676.585 321.029 675.488 320.566 674.587 319.87C673.693 319.179 672.995 318.268 672.633 317.204C671.741 314.579 669.942 312.245 667.629 310.87C665.652 309.695 663.288 309.241 660.827 309.984C658.171 310.786 655.809 312.858 654.292 315.139C653.785 315.903 653.418 316.742 653.049 317.577C652.357 319.139 651.677 320.595 650.604 321.814C650.197 322.278 649.542 322.647 648.872 322.733C648.6 322.768 648.318 322.759 648.045 322.711C644.995 320.346 644.211 318.356 644.037 316.305C643.853 314.154 644.418 311.88 645.522 309.684C648.11 304.532 653.681 299.866 657.665 298.459C663.12 296.533 668.877 297.265 673.746 299.824C678.757 302.458 682.805 307.026 684.591 312.531C685.021 313.857 685.101 315.337 684.747 316.675C684.401 317.982 683.657 319.16 682.449 320ZM562.394 275.144C559.449 278.857 555.529 279.876 551.556 280.846C549.349 281.387 547.587 281.821 545.878 282.444C541.182 284.157 536.613 286.415 532.556 289.343C528.315 292.404 523.73 296.028 520.646 300.311C519.913 301.331 519.235 302.388 518.555 303.449C517.936 304.415 517.339 305.346 516.7 306.251C515.967 307.291 515.282 308.371 514.601 309.447C514.208 310.331 514.136 310.546 514.062 310.769C513.952 311.104 513.822 311.48 513.67 311.885C513.462 312.439 513.213 313.049 512.942 313.608C512.502 314.621 512.235 314.919 511.99 315.069C511.583 315.316 511.186 315.464 510.783 315.463C510.404 315.463 510.031 315.329 509.647 315.081C507.731 313.843 506.913 311.512 506.639 308.961C506.222 305.09 507.097 300.633 508.073 297.837C510.341 291.339 513.758 284.449 518.263 279.238C523.403 273.291 529.251 268.537 536.201 264.887C540.52 262.617 545.573 260.395 550.539 259.955C554.114 259.639 557.645 260.261 560.788 262.541C562.718 263.94 563.841 266.14 564.137 268.443C564.439 270.793 563.884 273.267 562.394 275.144ZM685.538 289.861C685.369 290.239 685.104 290.519 684.793 290.707C684.467 290.903 684.087 290.997 683.708 290.982C683.332 290.967 682.96 290.845 682.649 290.625C682.351 290.415 682.106 290.116 681.965 289.73C678.469 280.2 673.19 273.453 663.322 269.933C658.467 268.201 653.038 267.402 647.927 266.865C646.442 266.709 644.89 266.684 643.327 266.657C638.43 266.572 633.484 266.39 629.851 262.907C627.662 260.809 626.485 257.917 626.582 255.122C626.673 252.49 627.875 249.933 630.432 248.165C636.796 243.765 645.711 246.135 652.974 248.197C653.513 248.35 654.041 248.501 654.558 248.645C661.655 250.622 668.277 253.584 674.013 258.3C678.564 262.041 683.083 267.856 685.408 274.136C687.343 279.36 687.757 284.895 685.538 289.861Z" fill="black"/>
<path fill-rule="evenodd" clip-rule="evenodd" d="M735.635 303.869C737.707 368.09 673.988 386.831 651.146 326.858C652.852 325.715 653.896 323.886 653.057 320.857C650.53 307.341 652.156 292.274 663.075 282.515C674.36 272.442 689.08 268.967 703.811 266.489C731.731 260.722 735.378 284.106 735.635 303.869M634.683 294.147C625.816 295.38 614.738 297.715 607.824 304.475C604.601 299.073 597.844 293.909 591.551 291.635C612.812 288.401 634.206 282.372 655.221 276.89C650.749 281.271 646.948 287.321 644.955 293.879C641.818 292.885 637.745 293.772 634.683 294.147M602.048 335.03C592.827 422.89 525.297 397.616 516.711 388.134C501.513 372.623 491.433 330.029 499.774 316.632C512.817 303.516 534.448 302.343 552.045 298.877C584.539 293.413 609.313 298.853 602.048 335.03M758.673 266.887C751.886 267.232 744.769 268.348 739.132 272.369C735.776 264.703 728.599 259.09 721.335 257.366C720.336 256.5 720.359 255.933 717.605 256.592C699.597 254.602 680.974 260.778 665.512 268.993C639.984 275.879 613.098 282.538 587.501 290.283C561.025 283.818 486.834 295.667 487.141 323.421C481.208 323.615 470.548 320.89 466.808 327.898C430.11 328.383 394.834 343.411 359.748 353.63C351.046 356.915 349.639 375.5 359.812 373.398C365.275 370.804 357.625 362.383 365.23 360.26C399.053 350.238 431.836 338.786 466.58 331.821C466.455 338.019 490.793 333.992 490.516 330.436C490.573 330.453 490.631 330.46 490.688 330.474C488.73 353.759 499.956 384.714 513.297 396.504C531.761 411.761 570.822 409.993 585.614 395.323C605.471 380.653 618.377 322.808 608.758 306.122C619.659 300.377 631.289 299.39 643.627 299.059C642.283 307.267 640.993 327.103 648.116 327.506C653.719 365.402 692.515 382.624 721.525 361.38C746.731 343.527 748.966 301.131 741.107 277.076C745.733 283.031 773.219 270.628 758.673 266.887" fill="black"/>
</svg>
